<svg xmlns="http://www.w3.org/2000/svg" viewBox="0 0 1080 1340" fill="none" role="img" aria-label="Humans of JavaScript">
  <defs>
    <linearGradient id="hojTileVertical" x1="204" y1="136" x2="836" y2="812" gradientUnits="userSpaceOnUse">
      <stop stop-color="#FFF17A"/>
      <stop offset="1" stop-color="#FFCC67"/>
    </linearGradient>
  </defs>

  <rect x="150" y="80" width="780" height="780" rx="170" fill="url(#hojTileVertical)"/>

  <g transform="translate(540 500) scale(0.82) translate(-540 -470)">
    <g fill="#082334">
      <circle cx="396" cy="288" r="58"/>
      <circle cx="684" cy="288" r="58"/>
      <rect x="338" y="354" width="116" height="398" rx="58"/>
      <rect x="626" y="354" width="116" height="398" rx="58"/>
      <rect x="396" y="446" width="288" height="82" rx="41"/>
    </g>
    <circle cx="418" cy="284" r="10" fill="#FFEB94"/>
    <circle cx="662" cy="284" r="10" fill="#FFEB94"/>
  </g>

  <path d="M650 118H808C845.555 118 876 148.445 876 186V212C876 249.555 845.555 280 808 280H752L714 315V280H718C680.445 280 650 249.555 650 212V186C650 148.445 680.445 118 718 118H650Z" fill="#3178C6"/>
  <text x="752" y="221" fill="#FFFDF8" font-family="Sora, Inter, 'Trebuchet MS', sans-serif" font-size="78" font-weight="700" letter-spacing="-2">JS</text>

  <text x="540" y="1008" text-anchor="middle" fill="#082334" font-family="Sora, Inter, 'Trebuchet MS', sans-serif" font-size="98" font-weight="600" letter-spacing="-3">Humans of</text>
  <text x="540" y="1138" text-anchor="middle" fill="#082334" font-family="Sora, Inter, 'Trebuchet MS', sans-serif" font-size="146" font-weight="700" letter-spacing="-5">JavaScript</text>
</svg>
