<svg width="1024" height="1024" viewBox="0 0 1024 1024" fill="none" xmlns="http://www.w3.org/2000/svg">
  <defs>
    <linearGradient id="tile" x1="192" y1="176" x2="832" y2="848" gradientUnits="userSpaceOnUse">
      <stop stop-color="#FFF17A"/>
      <stop offset="1" stop-color="#FFCC67"/>
    </linearGradient>
  </defs>
  <rect x="128" y="128" width="768" height="768" rx="164" fill="url(#tile)"/>

  <g fill="#082334">
    <circle cx="370" cy="332" r="58"/>
    <circle cx="654" cy="332" r="58"/>
    <rect x="312" y="398" width="116" height="390" rx="58"/>
    <rect x="596" y="398" width="116" height="390" rx="58"/>
    <rect x="370" y="486" width="284" height="82" rx="41"/>
  </g>

  <circle cx="392" cy="328" r="10" fill="#FFEB94"/>
  <circle cx="632" cy="328" r="10" fill="#FFEB94"/>

  <path d="M588 166H742C779.555 166 810 196.445 810 234V260C810 297.555 779.555 328 742 328H687L654 360V328H656C618.445 328 588 297.555 588 260V234C588 196.445 618.445 166 656 166H588Z" fill="#3178C6"/>
  <text x="686" y="269" fill="#FFFDF8" font-family="Sora, Inter, 'Trebuchet MS', sans-serif" font-size="78" font-weight="700" letter-spacing="-2">JS</text>
</svg>
