<svg width="1460" height="464" viewBox="64 56 1460 464" fill="none" xmlns="http://www.w3.org/2000/svg">
  <defs>
    <linearGradient id="tileHorizontal" x1="92" y1="80" x2="454" y2="454" gradientUnits="userSpaceOnUse">
      <stop stop-color="#FFF17A"/>
      <stop offset="1" stop-color="#FFCC67"/>
    </linearGradient>
  </defs>

  <rect x="64" y="56" width="464" height="464" rx="104" fill="url(#tileHorizontal)"/>

  <g transform="translate(296 308) scale(0.82) translate(-296 -288)">
    <g fill="#082334">
      <circle cx="210" cy="184" r="35"/>
      <circle cx="382" cy="184" r="35"/>
      <rect x="175" y="224" width="70" height="240" rx="35"/>
      <rect x="347" y="224" width="70" height="240" rx="35"/>
      <rect x="210" y="278" width="172" height="52" rx="26"/>
    </g>
    <circle cx="224" cy="182" r="6.5" fill="#FFEB94"/>
    <circle cx="368" cy="182" r="6.5" fill="#FFEB94"/>
  </g>

  <path d="M372 88H466C489.196 88 508 106.804 508 130V146C508 169.196 489.196 188 466 188H434L414 208V188H414C390.804 188 372 169.196 372 146V130C372 106.804 390.804 88 414 88H372Z" fill="#3178C6"/>
  <text x="432" y="155" fill="#FFFDF8" font-family="Sora, Inter, 'Trebuchet MS', sans-serif" font-size="48" font-weight="700" letter-spacing="-1.2">JS</text>

  <text x="608" y="290" fill="#082334" font-family="Sora, Inter, 'Trebuchet MS', sans-serif" font-size="110" font-weight="600" letter-spacing="-4">Humans of</text>
  <text x="608" y="430" fill="#082334" font-family="Sora, Inter, 'Trebuchet MS', sans-serif" font-size="166" font-weight="700" letter-spacing="-7">JavaScript</text>
</svg>
