<svg width="1600" height="720" viewBox="0 0 1600 720" fill="none" xmlns="http://www.w3.org/2000/svg">
  <defs>
    <linearGradient id="tileHorizontal" x1="92" y1="80" x2="454" y2="454" gradientUnits="userSpaceOnUse">
      <stop stop-color="#FFF17A"/>
      <stop offset="1" stop-color="#FFCC67"/>
    </linearGradient>
  </defs>

  <rect x="64" y="56" width="464" height="464" rx="104" fill="url(#tileHorizontal)"/>

  <g fill="#082334">
    <circle cx="210" cy="184" r="35"/>
    <circle cx="382" cy="184" r="35"/>
    <rect x="175" y="224" width="70" height="240" rx="35"/>
    <rect x="347" y="224" width="70" height="240" rx="35"/>
    <rect x="210" y="278" width="172" height="52" rx="26"/>
  </g>

  <circle cx="224" cy="182" r="6.5" fill="#FFEB94"/>
  <circle cx="368" cy="182" r="6.5" fill="#FFEB94"/>

  <path d="M340 88H434C457.196 88 476 106.804 476 130V146C476 169.196 457.196 188 434 188H402L382 208V188H382C358.804 188 340 169.196 340 146V130C340 106.804 358.804 88 382 88H340Z" fill="#3178C6"/>
  <text x="400" y="155" fill="#FFFDF8" font-family="Sora, Inter, 'Trebuchet MS', sans-serif" font-size="48" font-weight="700" letter-spacing="-1.2">JS</text>

  <text x="608" y="290" fill="#082334" font-family="Sora, Inter, 'Trebuchet MS', sans-serif" font-size="110" font-weight="600" letter-spacing="-4">Humans of</text>
  <text x="608" y="430" fill="#082334" font-family="Sora, Inter, 'Trebuchet MS', sans-serif" font-size="166" font-weight="700" letter-spacing="-7">JavaScript</text>
</svg>
