<svg width="1024" height="1024" viewBox="0 0 1024 1024" fill="none" xmlns="http://www.w3.org/2000/svg">
  <defs>
    <linearGradient id="tile" x1="192" y1="176" x2="832" y2="848" gradientUnits="userSpaceOnUse">
      <stop stop-color="#FFF17A"/>
      <stop offset="1" stop-color="#FFCC67"/>
    </linearGradient>
  </defs>
  <rect x="128" y="128" width="768" height="768" rx="164" fill="url(#tile)"/>

  <g transform="translate(512 540) scale(0.82) translate(-512 -512)">
    <g fill="#082334">
      <circle cx="370" cy="332" r="58"/>
      <circle cx="654" cy="332" r="58"/>
      <rect x="312" y="398" width="116" height="390" rx="58"/>
      <rect x="596" y="398" width="116" height="390" rx="58"/>
      <rect x="370" y="486" width="284" height="82" rx="41"/>
    </g>
    <circle cx="392" cy="328" r="10" fill="#FFEB94"/>
    <circle cx="632" cy="328" r="10" fill="#FFEB94"/>
  </g>

  <path d="M628 166H782C819.555 166 850 196.445 850 234V260C850 297.555 819.555 328 782 328H727L694 360V328H696C658.445 328 628 297.555 628 260V234C628 196.445 658.445 166 696 166H628Z" fill="#3178C6"/>
  <text x="726" y="269" fill="#FFFDF8" font-family="Sora, Inter, 'Trebuchet MS', sans-serif" font-size="78" font-weight="700" letter-spacing="-2">JS</text>
</svg>
